# xmcd
#
# Track frame offsets:
#	150
#	18270
#	52670
#	121841
#	164609
#	205687
#
# Disc length: 3326 seconds
#
# Revision: 1
# Processed by: cddbd v1.5.2PL0 Copyright (c) Steve Scherf et al.
# Submitted via: audiograbber 1.83.01
#
DISCID=400cfc06
DTITLE=Engerling - 20 Jahre Engerling (LP)
DYEAR=1994
DGENRE=Blues
TTITLE0=Mary
TTITLE1=Tommy Simpson
TTITLE2=Riders on the storm
TTITLE3=Moll-Blues
TTITLE4=Narkose-Blues
TTITLE5=Mama Wilson
EXTD=LP Version
EXTT0=
EXTT1=
EXTT2=
EXTT3=
EXTT4=
EXTT5=
PLAYORDER=
